<?xml version="1.0" encoding="UTF-8" standalone="no"?>
<!DOCTYPE svg PUBLIC "-//W3C//DTD SVG 1.1//EN"
 "http://www.w3.org/Graphics/SVG/1.1/DTD/svg11.dtd">
<!-- Generated by graphviz version 2.43.0 (0)
 -->
<!-- Title: mp Pages: 1 -->
<svg width="713pt" height="953pt"
 viewBox="57.60 57.60 655.60 895.68" xmlns="http://www.w3.org/2000/svg" xmlns:xlink="http://www.w3.org/1999/xlink">
<g id="graph0" class="graph" transform="scale(1.01 1.01) rotate(0) translate(62.42 904.42)">
<title>mp</title>
<polygon fill="white" stroke="transparent" points="-4,4 -4,-846 602.51,-846 602.51,4 -4,4"/>
<!-- oem -->
<g id="node1" class="node">
<title>oem</title>
<text text-anchor="middle" x="301.01" y="-711.2" font-family="Courier,monospace" font-weight="bold" font-size="36.00" fill="#000000">oem</text>
</g>
<!-- oemargs -->
<g id="node6" class="node">
<title>oemargs</title>
<polygon fill="none" stroke="black" points="538.01,-738 362.01,-738 362.01,-702 538.01,-702 538.01,-738"/>
<text text-anchor="middle" x="450.01" y="-713.8" font-family="Times,serif" font-size="24.00">oem (FLoem)</text>
</g>
<!-- oem&#45;&#45;oemargs -->
<g id="edge1" class="edge">
<title>oem&#45;&#45;oemargs</title>
<path fill="none" stroke="black" d="M342.04,-720C348.65,-720 355.26,-720 361.87,-720"/>
</g>
<!-- estin -->
<g id="node7" class="node">
<title>estin</title>
<polygon fill="none" stroke="black" points="527.01,-638 75.01,-638 75.01,-602 527.01,-602 527.01,-638"/>
<text text-anchor="middle" x="301.01" y="-613.8" font-family="Times,serif" font-size="24.00">stock (FLStock), indices (FLIndices)</text>
</g>
<!-- oem&#45;&#45;estin -->
<g id="edge7" class="edge">
<title>oem&#45;&#45;estin</title>
<path fill="none" stroke="black" d="M301.01,-695.78C301.01,-678.12 301.01,-654.21 301.01,-638.23"/>
</g>
<!-- est -->
<g id="node2" class="node">
<title>est</title>
<text text-anchor="middle" x="301.01" y="-512.2" font-family="Courier,monospace" font-weight="bold" font-size="36.00" fill="#000000">est</text>
</g>
<!-- estargs -->
<g id="node8" class="node">
<title>estargs</title>
<polygon fill="none" stroke="black" points="597.51,-539 362.51,-539 362.51,-503 597.51,-503 597.51,-539"/>
<text text-anchor="middle" x="480.01" y="-514.8" font-family="Times,serif" font-size="24.00">method (function)</text>
</g>
<!-- est&#45;&#45;estargs -->
<g id="edge2" class="edge">
<title>est&#45;&#45;estargs</title>
<path fill="none" stroke="black" d="M342.26,-521C348.99,-521 355.72,-521 362.44,-521"/>
</g>
<!-- hcrin -->
<g id="node9" class="node">
<title>hcrin</title>
<polygon fill="none" stroke="black" points="404.01,-439 198.01,-439 198.01,-403 404.01,-403 404.01,-439"/>
<text text-anchor="middle" x="301.01" y="-414.8" font-family="Times,serif" font-size="24.00">stock (FLStock)</text>
</g>
<!-- est&#45;&#45;hcrin -->
<g id="edge9" class="edge">
<title>est&#45;&#45;hcrin</title>
<path fill="none" stroke="black" d="M301.01,-496.78C301.01,-479.12 301.01,-455.21 301.01,-439.23"/>
</g>
<!-- hcr -->
<g id="node3" class="node">
<title>hcr</title>
<text text-anchor="middle" x="301.01" y="-312.2" font-family="Courier,monospace" font-weight="bold" font-size="36.00" fill="#000000">hcr</text>
</g>
<!-- hcrargs -->
<g id="node10" class="node">
<title>hcrargs</title>
<polygon fill="none" stroke="black" points="597.51,-339 362.51,-339 362.51,-303 597.51,-303 597.51,-339"/>
<text text-anchor="middle" x="480.01" y="-314.8" font-family="Times,serif" font-size="24.00">method (function)</text>
</g>
<!-- hcr&#45;&#45;hcrargs -->
<g id="edge3" class="edge">
<title>hcr&#45;&#45;hcrargs</title>
<path fill="none" stroke="black" d="M342.26,-321C348.99,-321 355.72,-321 362.44,-321"/>
</g>
<!-- omin -->
<g id="node11" class="node">
<title>omin</title>
<polygon fill="none" stroke="black" points="535.01,-240 67.01,-240 67.01,-204 535.01,-204 535.01,-240"/>
<text text-anchor="middle" x="301.01" y="-215.8" font-family="Times,serif" font-size="24.00">stock (FLStock), control (fwdControl)</text>
</g>
<!-- hcr&#45;&#45;omin -->
<g id="edge11" class="edge">
<title>hcr&#45;&#45;omin</title>
<path fill="none" stroke="black" d="M301.01,-296.52C301.01,-279.14 301.01,-255.85 301.01,-240.18"/>
</g>
<!-- om -->
<g id="node4" class="node">
<title>om</title>
<text text-anchor="middle" x="301.01" y="-113.2" font-family="Courier,monospace" font-weight="bold" font-size="36.00" fill="#000000">om</text>
</g>
<!-- omout -->
<g id="node12" class="node">
<title>omout</title>
<polygon fill="none" stroke="black" points="381.01,-41 221.01,-41 221.01,-5 381.01,-5 381.01,-41"/>
<text text-anchor="middle" x="301.01" y="-16.8" font-family="Times,serif" font-size="24.00">om (FLmse)</text>
</g>
<!-- om&#45;&#45;omout -->
<g id="edge13" class="edge">
<title>om&#45;&#45;omout</title>
<path fill="none" stroke="black" d="M301.01,-97.52C301.01,-80.14 301.01,-56.85 301.01,-41.18"/>
</g>
<!-- omargs -->
<g id="node13" class="node">
<title>omargs</title>
<polygon fill="none" stroke="black" points="586.51,-140 351.51,-140 351.51,-104 586.51,-104 586.51,-140"/>
<text text-anchor="middle" x="469.01" y="-115.8" font-family="Times,serif" font-size="24.00">method (function)</text>
</g>
<!-- om&#45;&#45;omargs -->
<g id="edge5" class="edge">
<title>om&#45;&#45;omargs</title>
<path fill="none" stroke="black" d="M331.2,-122C337.93,-122 344.66,-122 351.39,-122"/>
</g>
<!-- oemin -->
<g id="node5" class="node">
<title>oemin</title>
<polygon fill="none" stroke="black" points="375.01,-837 227.01,-837 227.01,-801 375.01,-801 375.01,-837"/>
<text text-anchor="middle" x="301.01" y="-812.8" font-family="Times,serif" font-size="24.00">om (FLom)</text>
</g>
<!-- oemin&#45;&#45;oem -->
<g id="edge6" class="edge">
<title>oemin&#45;&#45;oem</title>
<path fill="none" stroke="black" d="M301.01,-800.66C301.01,-784.86 301.01,-761.4 301.01,-744.03"/>
</g>
<!-- estin&#45;&#45;est -->
<g id="edge8" class="edge">
<title>estin&#45;&#45;est</title>
<path fill="none" stroke="black" d="M301.01,-601.66C301.01,-585.86 301.01,-562.4 301.01,-545.03"/>
</g>
<!-- hcrin&#45;&#45;hcr -->
<g id="edge10" class="edge">
<title>hcrin&#45;&#45;hcr</title>
<path fill="none" stroke="black" d="M301.01,-402.93C301.01,-386.92 301.01,-362.85 301.01,-345.12"/>
</g>
<!-- omin&#45;&#45;om -->
<g id="edge12" class="edge">
<title>omin&#45;&#45;om</title>
<path fill="none" stroke="black" d="M301.01,-203.93C301.01,-187.92 301.01,-163.85 301.01,-146.12"/>
</g>
<!-- omargs2 -->
<g id="node14" class="node">
<title>omargs2</title>
<polygon fill="none" stroke="black" points="251.01,-140 1.01,-140 1.01,-104 251.01,-104 251.01,-140"/>
<text text-anchor="middle" x="126.01" y="-115.8" font-family="Times,serif" font-size="24.00">deviates (FLQuant)</text>
</g>
<!-- omargs2&#45;&#45;om -->
<g id="edge4" class="edge">
<title>omargs2&#45;&#45;om</title>
<path fill="none" stroke="black" d="M251.11,-122C257.74,-122 264.36,-122 270.99,-122"/>
</g>
</g>
</svg>
