<?xml version="1.0" encoding="UTF-8" standalone="no"?>
<!DOCTYPE svg PUBLIC "-//W3C//DTD SVG 1.1//EN"
 "http://www.w3.org/Graphics/SVG/1.1/DTD/svg11.dtd">
<!-- Generated by graphviz version 2.43.0 (0)
 -->
<!-- Title: mp Pages: 1 -->
<svg width="713pt" height="953pt"
 viewBox="57.60 57.60 655.60 895.72" xmlns="http://www.w3.org/2000/svg" xmlns:xlink="http://www.w3.org/1999/xlink">
<g id="graph0" class="graph" transform="scale(0.98 0.98) rotate(0) translate(62.9 911.94)">
<title>mp</title>
<polygon fill="white" stroke="transparent" points="-4,4 -4,-853.04 607.5,-853.04 607.5,4 -4,4"/>
<!-- oem -->
<g id="node1" class="node">
<title>oem</title>
<text text-anchor="middle" x="298" y="-740.2" font-family="Courier,monospace" font-weight="bold" font-size="36.00" fill="#000000">oem</text>
</g>
<!-- oemargs -->
<g id="node7" class="node">
<title>oemargs</title>
<polygon fill="none" stroke="black" points="533,-767 357,-767 357,-731 533,-731 533,-767"/>
<text text-anchor="middle" x="445" y="-742.8" font-family="Times,serif" font-size="24.00">oem (FLoem)</text>
</g>
<!-- oem&#45;&#45;oemargs -->
<g id="edge1" class="edge">
<title>oem&#45;&#45;oemargs</title>
<path fill="none" stroke="black" d="M339.06,-749C344.99,-749 350.92,-749 356.85,-749"/>
</g>
<!-- estin -->
<g id="node8" class="node">
<title>estin</title>
<polygon fill="none" stroke="black" points="524,-686 72,-686 72,-650 524,-650 524,-686"/>
<text text-anchor="middle" x="298" y="-661.8" font-family="Times,serif" font-size="24.00">stock (FLStock), indices (FLIndices)</text>
</g>
<!-- oem&#45;&#45;estin -->
<g id="edge8" class="edge">
<title>oem&#45;&#45;estin</title>
<path fill="none" stroke="black" d="M298,-724.72C298,-712.34 298,-697.39 298,-686.09"/>
</g>
<!-- isys -->
<g id="node2" class="node">
<title>isys</title>
<text text-anchor="middle" x="298" y="-253.2" font-family="Courier,monospace" font-weight="bold" font-size="36.00" fill="#000000">isys</text>
</g>
<!-- isysargs -->
<g id="node13" class="node">
<title>isysargs</title>
<polygon fill="none" stroke="black" points="603.5,-280 368.5,-280 368.5,-244 603.5,-244 603.5,-280"/>
<text text-anchor="middle" x="486" y="-255.8" font-family="Times,serif" font-size="24.00">method (function)</text>
</g>
<!-- isys&#45;&#45;isysargs -->
<g id="edge4" class="edge">
<title>isys&#45;&#45;isysargs</title>
<path fill="none" stroke="black" d="M350.14,-262C356.24,-262 362.35,-262 368.45,-262"/>
</g>
<!-- omin -->
<g id="node14" class="node">
<title>omin</title>
<polygon fill="none" stroke="black" points="532,-199 64,-199 64,-163 532,-163 532,-199"/>
<text text-anchor="middle" x="298" y="-174.8" font-family="Times,serif" font-size="24.00">stock (FLStock), control (fwdControl)</text>
</g>
<!-- isys&#45;&#45;omin -->
<g id="edge14" class="edge">
<title>isys&#45;&#45;omin</title>
<path fill="none" stroke="black" d="M298,-237.72C298,-225.34 298,-210.39 298,-199.09"/>
</g>
<!-- est -->
<g id="node3" class="node">
<title>est</title>
<text text-anchor="middle" x="298" y="-578.2" font-family="Courier,monospace" font-weight="bold" font-size="36.00" fill="#000000">est</text>
</g>
<!-- estargs -->
<g id="node9" class="node">
<title>estargs</title>
<polygon fill="none" stroke="black" points="592.5,-605 357.5,-605 357.5,-569 592.5,-569 592.5,-605"/>
<text text-anchor="middle" x="475" y="-580.8" font-family="Times,serif" font-size="24.00">method (function)</text>
</g>
<!-- est&#45;&#45;estargs -->
<g id="edge2" class="edge">
<title>est&#45;&#45;estargs</title>
<path fill="none" stroke="black" d="M339.14,-587C345.24,-587 351.34,-587 357.45,-587"/>
</g>
<!-- hcrin -->
<g id="node10" class="node">
<title>hcrin</title>
<polygon fill="none" stroke="black" points="401,-524 195,-524 195,-488 401,-488 401,-524"/>
<text text-anchor="middle" x="298" y="-499.8" font-family="Times,serif" font-size="24.00">stock (FLStock)</text>
</g>
<!-- est&#45;&#45;hcrin -->
<g id="edge10" class="edge">
<title>est&#45;&#45;hcrin</title>
<path fill="none" stroke="black" d="M298,-562.72C298,-550.34 298,-535.39 298,-524.09"/>
</g>
<!-- hcr -->
<g id="node4" class="node">
<title>hcr</title>
<text text-anchor="middle" x="298" y="-416.2" font-family="Courier,monospace" font-weight="bold" font-size="36.00" fill="#000000">hcr</text>
</g>
<!-- hcrargs -->
<g id="node11" class="node">
<title>hcrargs</title>
<polygon fill="none" stroke="black" points="592.5,-443 357.5,-443 357.5,-407 592.5,-407 592.5,-443"/>
<text text-anchor="middle" x="475" y="-418.8" font-family="Times,serif" font-size="24.00">method (function)</text>
</g>
<!-- hcr&#45;&#45;hcrargs -->
<g id="edge3" class="edge">
<title>hcr&#45;&#45;hcrargs</title>
<path fill="none" stroke="black" d="M339.14,-425C345.24,-425 351.34,-425 357.45,-425"/>
</g>
<!-- isysin -->
<g id="node12" class="node">
<title>isysin</title>
<polygon fill="none" stroke="black" points="429.5,-361 166.5,-361 166.5,-325 429.5,-325 429.5,-361"/>
<text text-anchor="middle" x="298" y="-336.8" font-family="Times,serif" font-size="24.00">control (fwdControl)</text>
</g>
<!-- hcr&#45;&#45;isysin -->
<g id="edge12" class="edge">
<title>hcr&#45;&#45;isysin</title>
<path fill="none" stroke="black" d="M298,-400.86C298,-388.22 298,-372.82 298,-361.24"/>
</g>
<!-- om -->
<g id="node5" class="node">
<title>om</title>
<text text-anchor="middle" x="298" y="-91.2" font-family="Courier,monospace" font-weight="bold" font-size="36.00" fill="#000000">om</text>
</g>
<!-- omout -->
<g id="node15" class="node">
<title>omout</title>
<polygon fill="none" stroke="black" points="378,-37 218,-37 218,-1 378,-1 378,-37"/>
<text text-anchor="middle" x="298" y="-12.8" font-family="Times,serif" font-size="24.00">om (FLmse)</text>
</g>
<!-- om&#45;&#45;omout -->
<g id="edge16" class="edge">
<title>om&#45;&#45;omout</title>
<path fill="none" stroke="black" d="M298,-75.72C298,-63.34 298,-48.39 298,-37.09"/>
</g>
<!-- omargs -->
<g id="node16" class="node">
<title>omargs</title>
<polygon fill="none" stroke="black" points="581.5,-118 346.5,-118 346.5,-82 581.5,-82 581.5,-118"/>
<text text-anchor="middle" x="464" y="-93.8" font-family="Times,serif" font-size="24.00">method (function)</text>
</g>
<!-- om&#45;&#45;omargs -->
<g id="edge6" class="edge">
<title>om&#45;&#45;omargs</title>
<path fill="none" stroke="black" d="M328.15,-100C334.25,-100 340.36,-100 346.46,-100"/>
</g>
<!-- oemin -->
<g id="node6" class="node">
<title>oemin</title>
<polygon fill="none" stroke="black" points="372,-848 224,-848 224,-812 372,-812 372,-848"/>
<text text-anchor="middle" x="298" y="-823.8" font-family="Times,serif" font-size="24.00">om (FLom)</text>
</g>
<!-- oemin&#45;&#45;oem -->
<g id="edge7" class="edge">
<title>oemin&#45;&#45;oem</title>
<path fill="none" stroke="black" d="M298,-811.86C298,-800.51 298,-785.5 298,-773.1"/>
</g>
<!-- estin&#45;&#45;est -->
<g id="edge9" class="edge">
<title>estin&#45;&#45;est</title>
<path fill="none" stroke="black" d="M298,-649.86C298,-638.51 298,-623.5 298,-611.1"/>
</g>
<!-- hcrin&#45;&#45;hcr -->
<g id="edge11" class="edge">
<title>hcrin&#45;&#45;hcr</title>
<path fill="none" stroke="black" d="M298,-487.86C298,-476.51 298,-461.5 298,-449.1"/>
</g>
<!-- isysin&#45;&#45;isys -->
<g id="edge13" class="edge">
<title>isysin&#45;&#45;isys</title>
<path fill="none" stroke="black" d="M298,-324.86C298,-313.51 298,-298.5 298,-286.1"/>
</g>
<!-- omin&#45;&#45;om -->
<g id="edge15" class="edge">
<title>omin&#45;&#45;om</title>
<path fill="none" stroke="black" d="M298,-162.86C298,-151.51 298,-136.5 298,-124.1"/>
</g>
<!-- omargs2 -->
<g id="node17" class="node">
<title>omargs2</title>
<polygon fill="none" stroke="black" points="250,-118 0,-118 0,-82 250,-82 250,-118"/>
<text text-anchor="middle" x="125" y="-93.8" font-family="Times,serif" font-size="24.00">deviates (FLQuant)</text>
</g>
<!-- omargs2&#45;&#45;om -->
<g id="edge5" class="edge">
<title>omargs2&#45;&#45;om</title>
<path fill="none" stroke="black" d="M250.02,-100C255.89,-100 261.76,-100 267.64,-100"/>
</g>
</g>
</svg>
