<?xml version="1.0" encoding="UTF-8" standalone="no"?>
<!DOCTYPE svg PUBLIC "-//W3C//DTD SVG 1.1//EN"
 "http://www.w3.org/Graphics/SVG/1.1/DTD/svg11.dtd">
<!-- Generated by graphviz version 2.43.0 (0)
 -->
<!-- Title: mp Pages: 1 -->
<svg width="713pt" height="955pt"
 viewBox="57.60 57.60 655.60 897.15" xmlns="http://www.w3.org/2000/svg" xmlns:xlink="http://www.w3.org/1999/xlink">
<g id="graph0" class="graph" transform="scale(1.72 1.72) rotate(0) translate(103.34 1543.34)">
<title>mp</title>
<polygon fill="white" stroke="transparent" points="-4,4 -4,-1444 1027.39,-1444 1027.39,4 -4,4"/>
<!-- oem -->
<g id="node1" class="node">
<title>oem</title>
<text text-anchor="middle" x="607" y="-1335.2" font-family="Courier,monospace" font-weight="bold" font-size="36.00" fill="#000000">oem</text>
</g>
<!-- oemargs -->
<g id="node11" class="node">
<title>oemargs</title>
<polygon fill="none" stroke="black" points="896,-1362 720,-1362 720,-1326 896,-1326 896,-1362"/>
<text text-anchor="middle" x="808" y="-1337.8" font-family="Times,serif" font-size="24.00">oem (FLoem)</text>
</g>
<!-- oem&#45;&#45;oemargs -->
<g id="edge1" class="edge">
<title>oem&#45;&#45;oemargs</title>
<path fill="none" stroke="black" d="M648.22,-1344C672.14,-1344 696.07,-1344 720,-1344"/>
</g>
<!-- estin -->
<g id="node12" class="node">
<title>estin</title>
<polygon fill="none" stroke="black" points="800.5,-1284 413.5,-1284 413.5,-1248 800.5,-1248 800.5,-1284"/>
<text text-anchor="middle" x="607" y="-1259.8" font-family="Times,serif" font-size="24.00">stk (FLStocks), idx (FLIndices)</text>
</g>
<!-- oem&#45;&#45;estin -->
<g id="edge12" class="edge">
<title>oem&#45;&#45;estin</title>
<path fill="none" stroke="black" d="M607,-1319.78C607,-1308.26 607,-1294.59 607,-1284.04"/>
</g>
<!-- est -->
<g id="node2" class="node">
<title>est</title>
<text text-anchor="middle" x="607" y="-1179.2" font-family="Courier,monospace" font-weight="bold" font-size="36.00" fill="#000000">est</text>
</g>
<!-- estargs -->
<g id="node13" class="node">
<title>estargs</title>
<polygon fill="none" stroke="black" points="965.5,-1206 730.5,-1206 730.5,-1170 965.5,-1170 965.5,-1206"/>
<text text-anchor="middle" x="848" y="-1181.8" font-family="Times,serif" font-size="24.00">method (function)</text>
</g>
<!-- est&#45;&#45;estargs -->
<g id="edge2" class="edge">
<title>est&#45;&#45;estargs</title>
<path fill="none" stroke="black" d="M648.42,-1188C675.71,-1188 702.99,-1188 730.28,-1188"/>
</g>
<!-- phcrin -->
<g id="node14" class="node">
<title>phcrin</title>
<polygon fill="none" stroke="black" points="702.5,-1128 511.5,-1128 511.5,-1092 702.5,-1092 702.5,-1128"/>
<text text-anchor="middle" x="607" y="-1103.8" font-family="Times,serif" font-size="24.00">stk (FLStocks)</text>
</g>
<!-- est&#45;&#45;phcrin -->
<g id="edge14" class="edge">
<title>est&#45;&#45;phcrin</title>
<path fill="none" stroke="black" d="M607,-1163.78C607,-1152.26 607,-1138.59 607,-1128.04"/>
</g>
<!-- hcr -->
<g id="node3" class="node">
<title>hcr</title>
<text text-anchor="middle" x="607" y="-867.2" font-family="Courier,monospace" font-weight="bold" font-size="36.00" fill="#000000">hcr</text>
</g>
<!-- hcrargs -->
<g id="node17" class="node">
<title>hcrargs</title>
<polygon fill="none" stroke="black" points="965.5,-894 730.5,-894 730.5,-858 965.5,-858 965.5,-894"/>
<text text-anchor="middle" x="848" y="-869.8" font-family="Times,serif" font-size="24.00">method (function)</text>
</g>
<!-- hcr&#45;&#45;hcrargs -->
<g id="edge4" class="edge">
<title>hcr&#45;&#45;hcrargs</title>
<path fill="none" stroke="black" d="M648.42,-876C675.71,-876 702.99,-876 730.28,-876"/>
</g>
<!-- isin -->
<g id="node18" class="node">
<title>isin</title>
<polygon fill="none" stroke="black" points="738.5,-816 475.5,-816 475.5,-780 738.5,-780 738.5,-816"/>
<text text-anchor="middle" x="607" y="-791.8" font-family="Times,serif" font-size="24.00">control (fwdControl)</text>
</g>
<!-- hcr&#45;&#45;isin -->
<g id="edge18" class="edge">
<title>hcr&#45;&#45;isin</title>
<path fill="none" stroke="black" d="M607,-851.78C607,-840.26 607,-826.59 607,-816.04"/>
</g>
<!-- om -->
<g id="node4" class="node">
<title>om</title>
<text text-anchor="middle" x="607" y="-87.2" font-family="Courier,monospace" font-weight="bold" font-size="36.00" fill="#000000">om</text>
</g>
<!-- omout -->
<g id="node27" class="node">
<title>omout</title>
<polygon fill="none" stroke="black" points="687,-36 527,-36 527,0 687,0 687,-36"/>
<text text-anchor="middle" x="607" y="-11.8" font-family="Times,serif" font-size="24.00">om (FLmse)</text>
</g>
<!-- om&#45;&#45;omout -->
<g id="edge28" class="edge">
<title>om&#45;&#45;omout</title>
<path fill="none" stroke="black" d="M607,-71.78C607,-60.26 607,-46.59 607,-36.04"/>
</g>
<!-- omargs -->
<g id="node28" class="node">
<title>omargs</title>
<polygon fill="none" stroke="black" points="950.5,-114 715.5,-114 715.5,-78 950.5,-78 950.5,-114"/>
<text text-anchor="middle" x="833" y="-89.8" font-family="Times,serif" font-size="24.00">method (function)</text>
</g>
<!-- om&#45;&#45;omargs -->
<g id="edge10" class="edge">
<title>om&#45;&#45;omargs</title>
<path fill="none" stroke="black" d="M637.01,-96C663.17,-96 689.33,-96 715.48,-96"/>
</g>
<!-- phcr -->
<g id="node5" class="node">
<title>phcr</title>
<text text-anchor="middle" x="607" y="-1023.2" font-family="Courier,monospace" font-size="36.00" fill="#000000">phcr</text>
</g>
<!-- phcrargs -->
<g id="node15" class="node">
<title>phcrargs</title>
<polygon fill="none" stroke="black" points="980.5,-1050 745.5,-1050 745.5,-1014 980.5,-1014 980.5,-1050"/>
<text text-anchor="middle" x="863" y="-1025.8" font-family="Times,serif" font-size="24.00">method (function)</text>
</g>
<!-- phcr&#45;&#45;phcrargs -->
<g id="edge3" class="edge">
<title>phcr&#45;&#45;phcrargs</title>
<path fill="none" stroke="black" d="M659.5,-1032C688.12,-1032 716.73,-1032 745.35,-1032"/>
</g>
<!-- hcrin -->
<g id="node16" class="node">
<title>hcrin</title>
<polygon fill="none" stroke="black" points="805.5,-972 408.5,-972 408.5,-936 805.5,-936 805.5,-972"/>
<text text-anchor="middle" x="607" y="-947.8" font-family="Times,serif" font-size="24.00">stk (FLStocks), hcrpars (FLPar)</text>
</g>
<!-- phcr&#45;&#45;hcrin -->
<g id="edge16" class="edge">
<title>phcr&#45;&#45;hcrin</title>
<path fill="none" stroke="black" d="M607,-1007.78C607,-996.26 607,-982.59 607,-972.04"/>
</g>
<!-- is -->
<g id="node6" class="node">
<title>is</title>
<text text-anchor="middle" x="607" y="-711.2" font-family="Courier,monospace" font-size="36.00" fill="#000000">is</text>
</g>
<!-- isargs -->
<g id="node19" class="node">
<title>isargs</title>
<polygon fill="none" stroke="black" points="950.5,-738 715.5,-738 715.5,-702 950.5,-702 950.5,-738"/>
<text text-anchor="middle" x="833" y="-713.8" font-family="Times,serif" font-size="24.00">method (function)</text>
</g>
<!-- is&#45;&#45;isargs -->
<g id="edge5" class="edge">
<title>is&#45;&#45;isargs</title>
<path fill="none" stroke="black" d="M637.01,-720C663.17,-720 689.33,-720 715.48,-720"/>
</g>
<!-- tmin -->
<g id="node20" class="node">
<title>tmin</title>
<polygon fill="none" stroke="black" points="738.5,-660 475.5,-660 475.5,-624 738.5,-624 738.5,-660"/>
<text text-anchor="middle" x="607" y="-635.8" font-family="Times,serif" font-size="24.00">control (fwdControl)</text>
</g>
<!-- is&#45;&#45;tmin -->
<g id="edge20" class="edge">
<title>is&#45;&#45;tmin</title>
<path fill="none" stroke="black" d="M607,-695.78C607,-684.26 607,-670.59 607,-660.04"/>
</g>
<!-- tm -->
<g id="node7" class="node">
<title>tm</title>
<text text-anchor="middle" x="607" y="-555.2" font-family="Courier,monospace" font-size="36.00" fill="#000000">tm</text>
</g>
<!-- tmargs -->
<g id="node21" class="node">
<title>tmargs</title>
<polygon fill="none" stroke="black" points="950.5,-582 715.5,-582 715.5,-546 950.5,-546 950.5,-582"/>
<text text-anchor="middle" x="833" y="-557.8" font-family="Times,serif" font-size="24.00">method (function)</text>
</g>
<!-- tm&#45;&#45;tmargs -->
<g id="edge6" class="edge">
<title>tm&#45;&#45;tmargs</title>
<path fill="none" stroke="black" d="M637.01,-564C663.17,-564 689.33,-564 715.48,-564"/>
</g>
<!-- iemin -->
<g id="node22" class="node">
<title>iemin</title>
<polygon fill="none" stroke="black" points="738.5,-504 475.5,-504 475.5,-468 738.5,-468 738.5,-504"/>
<text text-anchor="middle" x="607" y="-479.8" font-family="Times,serif" font-size="24.00">control (fwdControl)</text>
</g>
<!-- tm&#45;&#45;iemin -->
<g id="edge22" class="edge">
<title>tm&#45;&#45;iemin</title>
<path fill="none" stroke="black" d="M607,-539.78C607,-528.26 607,-514.59 607,-504.04"/>
</g>
<!-- iem -->
<g id="node8" class="node">
<title>iem</title>
<text text-anchor="middle" x="607" y="-399.2" font-family="Courier,monospace" font-size="36.00" fill="#000000">iem</text>
</g>
<!-- iemargs -->
<g id="node23" class="node">
<title>iemargs</title>
<polygon fill="none" stroke="black" points="965.5,-426 730.5,-426 730.5,-390 965.5,-390 965.5,-426"/>
<text text-anchor="middle" x="848" y="-401.8" font-family="Times,serif" font-size="24.00">method (function)</text>
</g>
<!-- iem&#45;&#45;iemargs -->
<g id="edge7" class="edge">
<title>iem&#45;&#45;iemargs</title>
<path fill="none" stroke="black" d="M648.42,-408C675.71,-408 702.99,-408 730.28,-408"/>
</g>
<!-- fbin -->
<g id="node24" class="node">
<title>fbin</title>
<polygon fill="none" stroke="black" points="738.5,-348 475.5,-348 475.5,-312 738.5,-312 738.5,-348"/>
<text text-anchor="middle" x="607" y="-323.8" font-family="Times,serif" font-size="24.00">control (fwdControl)</text>
</g>
<!-- iem&#45;&#45;fbin -->
<g id="edge24" class="edge">
<title>iem&#45;&#45;fbin</title>
<path fill="none" stroke="black" d="M607,-383.78C607,-372.26 607,-358.59 607,-348.04"/>
</g>
<!-- fb -->
<g id="node9" class="node">
<title>fb</title>
<text text-anchor="middle" x="607" y="-243.2" font-family="Courier,monospace" font-size="36.00" fill="#000000">fb</text>
</g>
<!-- fbargs -->
<g id="node25" class="node">
<title>fbargs</title>
<polygon fill="none" stroke="black" points="950.5,-270 715.5,-270 715.5,-234 950.5,-234 950.5,-270"/>
<text text-anchor="middle" x="833" y="-245.8" font-family="Times,serif" font-size="24.00">method (function)</text>
</g>
<!-- fb&#45;&#45;fbargs -->
<g id="edge8" class="edge">
<title>fb&#45;&#45;fbargs</title>
<path fill="none" stroke="black" d="M637.01,-252C663.17,-252 689.33,-252 715.48,-252"/>
</g>
<!-- omin -->
<g id="node26" class="node">
<title>omin</title>
<polygon fill="none" stroke="black" points="847,-192 367,-192 367,-156 847,-156 847,-192"/>
<text text-anchor="middle" x="607" y="-167.8" font-family="Times,serif" font-size="24.00">stock (FLStocks), control (fwdControl)</text>
</g>
<!-- fb&#45;&#45;omin -->
<g id="edge26" class="edge">
<title>fb&#45;&#45;omin</title>
<path fill="none" stroke="black" d="M607,-227.78C607,-216.26 607,-202.59 607,-192.04"/>
</g>
<!-- oemin -->
<g id="node10" class="node">
<title>oemin</title>
<polygon fill="none" stroke="black" points="698,-1440 516,-1440 516,-1404 698,-1404 698,-1440"/>
<text text-anchor="middle" x="607" y="-1415.8" font-family="Times,serif" font-size="24.00">om (FLomBF)</text>
</g>
<!-- oemin&#45;&#45;oem -->
<g id="edge11" class="edge">
<title>oemin&#45;&#45;oem</title>
<path fill="none" stroke="black" d="M607,-1403.75C607,-1393.24 607,-1379.68 607,-1368.23"/>
</g>
<!-- estin&#45;&#45;est -->
<g id="edge13" class="edge">
<title>estin&#45;&#45;est</title>
<path fill="none" stroke="black" d="M607,-1247.75C607,-1237.24 607,-1223.68 607,-1212.23"/>
</g>
<!-- phcrin&#45;&#45;phcr -->
<g id="edge15" class="edge">
<title>phcrin&#45;&#45;phcr</title>
<path fill="none" stroke="black" d="M607,-1091.75C607,-1081.24 607,-1067.68 607,-1056.23"/>
</g>
<!-- hcrin&#45;&#45;hcr -->
<g id="edge17" class="edge">
<title>hcrin&#45;&#45;hcr</title>
<path fill="none" stroke="black" d="M607,-935.75C607,-925.24 607,-911.68 607,-900.23"/>
</g>
<!-- isin&#45;&#45;is -->
<g id="edge19" class="edge">
<title>isin&#45;&#45;is</title>
<path fill="none" stroke="black" d="M607,-779.75C607,-769.24 607,-755.68 607,-744.23"/>
</g>
<!-- tmin&#45;&#45;tm -->
<g id="edge21" class="edge">
<title>tmin&#45;&#45;tm</title>
<path fill="none" stroke="black" d="M607,-623.75C607,-613.24 607,-599.68 607,-588.23"/>
</g>
<!-- iemin&#45;&#45;iem -->
<g id="edge23" class="edge">
<title>iemin&#45;&#45;iem</title>
<path fill="none" stroke="black" d="M607,-467.75C607,-457.24 607,-443.68 607,-432.23"/>
</g>
<!-- fbin&#45;&#45;fb -->
<g id="edge25" class="edge">
<title>fbin&#45;&#45;fb</title>
<path fill="none" stroke="black" d="M607,-311.75C607,-301.24 607,-287.68 607,-276.23"/>
</g>
<!-- omin&#45;&#45;om -->
<g id="edge27" class="edge">
<title>omin&#45;&#45;om</title>
<path fill="none" stroke="black" d="M607,-155.75C607,-145.24 607,-131.68 607,-120.23"/>
</g>
<!-- omargs2 -->
<g id="node29" class="node">
<title>omargs2</title>
<polygon fill="none" stroke="black" points="470,-114 72,-114 72,-78 470,-78 470,-114"/>
<text text-anchor="middle" x="271" y="-89.8" font-family="Times,serif" font-size="24.00">oem@deviances$rec (FLQuant)</text>
</g>
<!-- omargs2&#45;&#45;om -->
<g id="edge9" class="edge">
<title>omargs2&#45;&#45;om</title>
<path fill="none" stroke="black" d="M470.17,-96C505.71,-96 541.26,-96 576.8,-96"/>
</g>
</g>
</svg>
