<?xml version="1.0" encoding="UTF-8" standalone="no"?>
<!DOCTYPE svg PUBLIC "-//W3C//DTD SVG 1.1//EN"
 "http://www.w3.org/Graphics/SVG/1.1/DTD/svg11.dtd">
<!-- Generated by graphviz version 2.43.0 (0)
 -->
<!-- Title: mp Pages: 1 -->
<svg width="713pt" height="955pt"
 viewBox="57.60 57.60 655.60 897.26" xmlns="http://www.w3.org/2000/svg" xmlns:xlink="http://www.w3.org/1999/xlink">
<g id="graph0" class="graph" transform="scale(1.72 1.72) rotate(0) translate(103.33 1543.33)">
<title>mp</title>
<polygon fill="white" stroke="transparent" points="-4,4 -4,-1444 1027.25,-1444 1027.25,4 -4,4"/>
<!-- oem -->
<g id="node1" class="node">
<title>oem</title>
<text text-anchor="middle" x="324.13" y="-1335.2" font-family="Courier,monospace" font-weight="bold" font-size="36.00" fill="#000000">oem</text>
</g>
<!-- oemargs -->
<g id="node11" class="node">
<title>oemargs</title>
<polygon fill="none" stroke="black" points="572.13,-1362 396.13,-1362 396.13,-1326 572.13,-1326 572.13,-1362"/>
<text text-anchor="middle" x="484.13" y="-1337.8" font-family="Times,serif" font-size="24.00">oem (FLoem)</text>
</g>
<!-- oem&#45;&#45;oemargs -->
<g id="edge1" class="edge">
<title>oem&#45;&#45;oemargs</title>
<path fill="none" stroke="black" d="M365.38,-1344C375.59,-1344 385.79,-1344 396,-1344"/>
</g>
<!-- estin -->
<g id="node13" class="node">
<title>estin</title>
<polygon fill="none" stroke="black" points="550.13,-1284 98.13,-1284 98.13,-1248 550.13,-1248 550.13,-1284"/>
<text text-anchor="middle" x="324.13" y="-1259.8" font-family="Times,serif" font-size="24.00">stock (FLStock), indices (FLIndices)</text>
</g>
<!-- oem&#45;&#45;estin -->
<g id="edge12" class="edge">
<title>oem&#45;&#45;estin</title>
<path fill="none" stroke="black" d="M324.13,-1319.78C324.13,-1308.26 324.13,-1294.59 324.13,-1284.04"/>
</g>
<!-- est -->
<g id="node2" class="node">
<title>est</title>
<text text-anchor="middle" x="324.13" y="-1179.2" font-family="Courier,monospace" font-weight="bold" font-size="36.00" fill="#000000">est</text>
</g>
<!-- estargs -->
<g id="node14" class="node">
<title>estargs</title>
<polygon fill="none" stroke="black" points="634.63,-1206 399.63,-1206 399.63,-1170 634.63,-1170 634.63,-1206"/>
<text text-anchor="middle" x="517.13" y="-1181.8" font-family="Times,serif" font-size="24.00">method (function)</text>
</g>
<!-- est&#45;&#45;estargs -->
<g id="edge2" class="edge">
<title>est&#45;&#45;estargs</title>
<path fill="none" stroke="black" d="M365.22,-1188C376.59,-1188 387.97,-1188 399.34,-1188"/>
</g>
<!-- phcrin -->
<g id="node16" class="node">
<title>phcrin</title>
<polygon fill="none" stroke="black" points="427.13,-1128 221.13,-1128 221.13,-1092 427.13,-1092 427.13,-1128"/>
<text text-anchor="middle" x="324.13" y="-1103.8" font-family="Times,serif" font-size="24.00">stock (FLStock)</text>
</g>
<!-- est&#45;&#45;phcrin -->
<g id="edge14" class="edge">
<title>est&#45;&#45;phcrin</title>
<path fill="none" stroke="black" d="M324.13,-1163.78C324.13,-1152.26 324.13,-1138.59 324.13,-1128.04"/>
</g>
<!-- hcr -->
<g id="node3" class="node">
<title>hcr</title>
<text text-anchor="middle" x="324.13" y="-867.2" font-family="Courier,monospace" font-weight="bold" font-size="36.00" fill="#000000">hcr</text>
</g>
<!-- hcrargs -->
<g id="node20" class="node">
<title>hcrargs</title>
<polygon fill="none" stroke="black" points="634.63,-894 399.63,-894 399.63,-858 634.63,-858 634.63,-894"/>
<text text-anchor="middle" x="517.13" y="-869.8" font-family="Times,serif" font-size="24.00">method (function)</text>
</g>
<!-- hcr&#45;&#45;hcrargs -->
<g id="edge4" class="edge">
<title>hcr&#45;&#45;hcrargs</title>
<path fill="none" stroke="black" d="M365.22,-876C376.59,-876 387.97,-876 399.34,-876"/>
</g>
<!-- isin -->
<g id="node22" class="node">
<title>isin</title>
<polygon fill="none" stroke="black" points="455.63,-816 192.63,-816 192.63,-780 455.63,-780 455.63,-816"/>
<text text-anchor="middle" x="324.13" y="-791.8" font-family="Times,serif" font-size="24.00">control (fwdControl)</text>
</g>
<!-- hcr&#45;&#45;isin -->
<g id="edge18" class="edge">
<title>hcr&#45;&#45;isin</title>
<path fill="none" stroke="black" d="M324.13,-851.78C324.13,-840.26 324.13,-826.59 324.13,-816.04"/>
</g>
<!-- om -->
<g id="node4" class="node">
<title>om</title>
<text text-anchor="middle" x="324.13" y="-87.2" font-family="Courier,monospace" font-weight="bold" font-size="36.00" fill="#000000">om</text>
</g>
<!-- omout -->
<g id="node35" class="node">
<title>omout</title>
<polygon fill="none" stroke="black" points="404.13,-36 244.13,-36 244.13,0 404.13,0 404.13,-36"/>
<text text-anchor="middle" x="324.13" y="-11.8" font-family="Times,serif" font-size="24.00">om (FLmse)</text>
</g>
<!-- om&#45;&#45;omout -->
<g id="edge28" class="edge">
<title>om&#45;&#45;omout</title>
<path fill="none" stroke="black" d="M324.13,-71.78C324.13,-60.26 324.13,-46.59 324.13,-36.04"/>
</g>
<!-- omargs -->
<g id="node36" class="node">
<title>omargs</title>
<polygon fill="none" stroke="black" points="622.63,-114 387.63,-114 387.63,-78 622.63,-78 622.63,-114"/>
<text text-anchor="middle" x="505.13" y="-89.8" font-family="Times,serif" font-size="24.00">method (function)</text>
</g>
<!-- om&#45;&#45;omargs -->
<g id="edge10" class="edge">
<title>om&#45;&#45;omargs</title>
<path fill="none" stroke="black" d="M354.18,-96C365.29,-96 376.39,-96 387.5,-96"/>
</g>
<!-- phcr -->
<g id="node5" class="node">
<title>phcr</title>
<text text-anchor="middle" x="324.13" y="-1023.2" font-family="Courier,monospace" font-size="36.00" fill="#000000">phcr</text>
</g>
<!-- phcrargs -->
<g id="node17" class="node">
<title>phcrargs</title>
<polygon fill="none" stroke="black" points="646.63,-1050 411.63,-1050 411.63,-1014 646.63,-1014 646.63,-1050"/>
<text text-anchor="middle" x="529.13" y="-1025.8" font-family="Times,serif" font-size="24.00">method (function)</text>
</g>
<!-- phcr&#45;&#45;phcrargs -->
<g id="edge3" class="edge">
<title>phcr&#45;&#45;phcrargs</title>
<path fill="none" stroke="black" d="M376.18,-1032C387.93,-1032 399.68,-1032 411.43,-1032"/>
</g>
<!-- hcrin -->
<g id="node19" class="node">
<title>hcrin</title>
<polygon fill="none" stroke="black" points="427.13,-972 221.13,-972 221.13,-936 427.13,-936 427.13,-972"/>
<text text-anchor="middle" x="324.13" y="-947.8" font-family="Times,serif" font-size="24.00">stock (FLStock)</text>
</g>
<!-- phcr&#45;&#45;hcrin -->
<g id="edge16" class="edge">
<title>phcr&#45;&#45;hcrin</title>
<path fill="none" stroke="black" d="M324.13,-1007.78C324.13,-996.26 324.13,-982.59 324.13,-972.04"/>
</g>
<!-- isys -->
<g id="node6" class="node">
<title>isys</title>
<text text-anchor="middle" x="324.13" y="-711.2" font-family="Courier,monospace" font-size="36.00" fill="#000000">isys</text>
</g>
<!-- isargs -->
<g id="node23" class="node">
<title>isargs</title>
<polygon fill="none" stroke="black" points="646.63,-738 411.63,-738 411.63,-702 646.63,-702 646.63,-738"/>
<text text-anchor="middle" x="529.13" y="-713.8" font-family="Times,serif" font-size="24.00">method (function)</text>
</g>
<!-- isys&#45;&#45;isargs -->
<g id="edge5" class="edge">
<title>isys&#45;&#45;isargs</title>
<path fill="none" stroke="black" d="M376.18,-720C387.93,-720 399.68,-720 411.43,-720"/>
</g>
<!-- tmin -->
<g id="node25" class="node">
<title>tmin</title>
<polygon fill="none" stroke="black" points="455.63,-660 192.63,-660 192.63,-624 455.63,-624 455.63,-660"/>
<text text-anchor="middle" x="324.13" y="-635.8" font-family="Times,serif" font-size="24.00">control (fwdControl)</text>
</g>
<!-- isys&#45;&#45;tmin -->
<g id="edge20" class="edge">
<title>isys&#45;&#45;tmin</title>
<path fill="none" stroke="black" d="M324.13,-695.78C324.13,-684.26 324.13,-670.59 324.13,-660.04"/>
</g>
<!-- tm -->
<g id="node7" class="node">
<title>tm</title>
<text text-anchor="middle" x="324.13" y="-555.2" font-family="Courier,monospace" font-size="36.00" fill="#000000">tm</text>
</g>
<!-- tmargs -->
<g id="node26" class="node">
<title>tmargs</title>
<polygon fill="none" stroke="black" points="622.63,-582 387.63,-582 387.63,-546 622.63,-546 622.63,-582"/>
<text text-anchor="middle" x="505.13" y="-557.8" font-family="Times,serif" font-size="24.00">method (function)</text>
</g>
<!-- tm&#45;&#45;tmargs -->
<g id="edge6" class="edge">
<title>tm&#45;&#45;tmargs</title>
<path fill="none" stroke="black" d="M354.18,-564C365.29,-564 376.39,-564 387.5,-564"/>
</g>
<!-- iemin -->
<g id="node28" class="node">
<title>iemin</title>
<polygon fill="none" stroke="black" points="455.63,-504 192.63,-504 192.63,-468 455.63,-468 455.63,-504"/>
<text text-anchor="middle" x="324.13" y="-479.8" font-family="Times,serif" font-size="24.00">control (fwdControl)</text>
</g>
<!-- tm&#45;&#45;iemin -->
<g id="edge22" class="edge">
<title>tm&#45;&#45;iemin</title>
<path fill="none" stroke="black" d="M324.13,-539.78C324.13,-528.26 324.13,-514.59 324.13,-504.04"/>
</g>
<!-- iem -->
<g id="node8" class="node">
<title>iem</title>
<text text-anchor="middle" x="324.13" y="-399.2" font-family="Courier,monospace" font-size="36.00" fill="#000000">iem</text>
</g>
<!-- iemargs -->
<g id="node29" class="node">
<title>iemargs</title>
<polygon fill="none" stroke="black" points="558.63,-426 395.63,-426 395.63,-390 558.63,-390 558.63,-426"/>
<text text-anchor="middle" x="477.13" y="-401.8" font-family="Times,serif" font-size="24.00">iem (FLiem)</text>
</g>
<!-- iem&#45;&#45;iemargs -->
<g id="edge7" class="edge">
<title>iem&#45;&#45;iemargs</title>
<path fill="none" stroke="black" d="M365.37,-408C375.41,-408 385.45,-408 395.49,-408"/>
</g>
<!-- fbin -->
<g id="node31" class="node">
<title>fbin</title>
<polygon fill="none" stroke="black" points="455.63,-348 192.63,-348 192.63,-312 455.63,-312 455.63,-348"/>
<text text-anchor="middle" x="324.13" y="-323.8" font-family="Times,serif" font-size="24.00">control (fwdControl)</text>
</g>
<!-- iem&#45;&#45;fbin -->
<g id="edge24" class="edge">
<title>iem&#45;&#45;fbin</title>
<path fill="none" stroke="black" d="M324.13,-383.78C324.13,-372.26 324.13,-358.59 324.13,-348.04"/>
</g>
<!-- fb -->
<g id="node9" class="node">
<title>fb</title>
<text text-anchor="middle" x="324.13" y="-243.2" font-family="Courier,monospace" font-size="36.00" fill="#000000">fb</text>
</g>
<!-- fbargs -->
<g id="node32" class="node">
<title>fbargs</title>
<polygon fill="none" stroke="black" points="622.63,-270 387.63,-270 387.63,-234 622.63,-234 622.63,-270"/>
<text text-anchor="middle" x="505.13" y="-245.8" font-family="Times,serif" font-size="24.00">method (function)</text>
</g>
<!-- fb&#45;&#45;fbargs -->
<g id="edge8" class="edge">
<title>fb&#45;&#45;fbargs</title>
<path fill="none" stroke="black" d="M354.18,-252C365.29,-252 376.39,-252 387.5,-252"/>
</g>
<!-- omin -->
<g id="node34" class="node">
<title>omin</title>
<polygon fill="none" stroke="black" points="558.13,-192 90.13,-192 90.13,-156 558.13,-156 558.13,-192"/>
<text text-anchor="middle" x="324.13" y="-167.8" font-family="Times,serif" font-size="24.00">stock (FLStock), control (fwdControl)</text>
</g>
<!-- fb&#45;&#45;omin -->
<g id="edge26" class="edge">
<title>fb&#45;&#45;omin</title>
<path fill="none" stroke="black" d="M324.13,-227.78C324.13,-216.26 324.13,-202.59 324.13,-192.04"/>
</g>
<!-- oemin -->
<g id="node10" class="node">
<title>oemin</title>
<polygon fill="none" stroke="black" points="398.13,-1440 250.13,-1440 250.13,-1404 398.13,-1404 398.13,-1440"/>
<text text-anchor="middle" x="324.13" y="-1415.8" font-family="Times,serif" font-size="24.00">om (FLom)</text>
</g>
<!-- oemin&#45;&#45;oem -->
<g id="edge11" class="edge">
<title>oemin&#45;&#45;oem</title>
<path fill="none" stroke="black" d="M324.13,-1403.75C324.13,-1393.24 324.13,-1379.68 324.13,-1368.23"/>
</g>
<!-- oemname -->
<g id="node12" class="node">
<title>oemname</title>
<polygon fill="none" stroke="black" points="933.13,-1362 613.13,-1362 613.13,-1326 933.13,-1326 933.13,-1362"/>
<text text-anchor="middle" x="773.13" y="-1337.8" font-family="Times,serif" font-size="24.00">Observation Error Model</text>
</g>
<!-- estin&#45;&#45;est -->
<g id="edge13" class="edge">
<title>estin&#45;&#45;est</title>
<path fill="none" stroke="black" d="M324.13,-1247.75C324.13,-1237.24 324.13,-1223.68 324.13,-1212.23"/>
</g>
<!-- estname -->
<g id="node15" class="node">
<title>estname</title>
<polygon fill="none" stroke="black" points="965.63,-1206 676.63,-1206 676.63,-1170 965.63,-1170 965.63,-1206"/>
<text text-anchor="middle" x="821.13" y="-1181.8" font-family="Times,serif" font-size="24.00">Stock status estimator</text>
</g>
<!-- phcrin&#45;&#45;phcr -->
<g id="edge15" class="edge">
<title>phcrin&#45;&#45;phcr</title>
<path fill="none" stroke="black" d="M324.13,-1091.75C324.13,-1081.24 324.13,-1067.68 324.13,-1056.23"/>
</g>
<!-- phcrname -->
<g id="node18" class="node">
<title>phcrname</title>
<polygon fill="none" stroke="black" points="1009.63,-1050 690.63,-1050 690.63,-1014 1009.63,-1014 1009.63,-1050"/>
<text text-anchor="middle" x="850.13" y="-1025.8" font-family="Times,serif" font-size="24.00">Pre&#45;harvest Control Rule</text>
</g>
<!-- hcrin&#45;&#45;hcr -->
<g id="edge17" class="edge">
<title>hcrin&#45;&#45;hcr</title>
<path fill="none" stroke="black" d="M324.13,-935.75C324.13,-925.24 324.13,-911.68 324.13,-900.23"/>
</g>
<!-- hcrname -->
<g id="node21" class="node">
<title>hcrname</title>
<polygon fill="none" stroke="black" points="951.13,-894 677.13,-894 677.13,-858 951.13,-858 951.13,-894"/>
<text text-anchor="middle" x="814.13" y="-869.8" font-family="Times,serif" font-size="24.00">Harvest Control Rule</text>
</g>
<!-- isin&#45;&#45;isys -->
<g id="edge19" class="edge">
<title>isin&#45;&#45;isys</title>
<path fill="none" stroke="black" d="M324.13,-779.75C324.13,-769.24 324.13,-755.68 324.13,-744.23"/>
</g>
<!-- isname -->
<g id="node24" class="node">
<title>isname</title>
<polygon fill="none" stroke="black" points="990.63,-738 689.63,-738 689.63,-702 990.63,-702 990.63,-738"/>
<text text-anchor="middle" x="840.13" y="-713.8" font-family="Times,serif" font-size="24.00">Implementation system</text>
</g>
<!-- tmin&#45;&#45;tm -->
<g id="edge21" class="edge">
<title>tmin&#45;&#45;tm</title>
<path fill="none" stroke="black" d="M324.13,-623.75C324.13,-613.24 324.13,-599.68 324.13,-588.23"/>
</g>
<!-- tmname -->
<g id="node27" class="node">
<title>tmname</title>
<polygon fill="none" stroke="black" points="920.63,-582 663.63,-582 663.63,-546 920.63,-546 920.63,-582"/>
<text text-anchor="middle" x="792.13" y="-557.8" font-family="Times,serif" font-size="24.00">Technical measures</text>
</g>
<!-- iemin&#45;&#45;iem -->
<g id="edge23" class="edge">
<title>iemin&#45;&#45;iem</title>
<path fill="none" stroke="black" d="M324.13,-467.75C324.13,-457.24 324.13,-443.68 324.13,-432.23"/>
</g>
<!-- iemname -->
<g id="node30" class="node">
<title>iemname</title>
<polygon fill="none" stroke="black" points="966.63,-426 601.63,-426 601.63,-390 966.63,-390 966.63,-426"/>
<text text-anchor="middle" x="784.13" y="-401.8" font-family="Times,serif" font-size="24.00">Implementation Error Model</text>
</g>
<!-- fbin&#45;&#45;fb -->
<g id="edge25" class="edge">
<title>fbin&#45;&#45;fb</title>
<path fill="none" stroke="black" d="M324.13,-311.75C324.13,-301.24 324.13,-287.68 324.13,-276.23"/>
</g>
<!-- fbname -->
<g id="node33" class="node">
<title>fbname</title>
<polygon fill="none" stroke="black" points="870.13,-270 662.13,-270 662.13,-234 870.13,-234 870.13,-270"/>
<text text-anchor="middle" x="766.13" y="-245.8" font-family="Times,serif" font-size="24.00">Fleet behaviour</text>
</g>
<!-- omin&#45;&#45;om -->
<g id="edge27" class="edge">
<title>omin&#45;&#45;om</title>
<path fill="none" stroke="black" d="M324.13,-155.75C324.13,-145.24 324.13,-131.68 324.13,-120.23"/>
</g>
<!-- omargs2 -->
<g id="node37" class="node">
<title>omargs2</title>
<polygon fill="none" stroke="black" points="261.13,-114 11.13,-114 11.13,-78 261.13,-78 261.13,-114"/>
<text text-anchor="middle" x="136.13" y="-89.8" font-family="Times,serif" font-size="24.00">deviates (FLQuant)</text>
</g>
<!-- omargs2&#45;&#45;om -->
<g id="edge9" class="edge">
<title>omargs2&#45;&#45;om</title>
<path fill="none" stroke="black" d="M261.34,-96C272.13,-96 282.93,-96 293.72,-96"/>
</g>
<!-- omname -->
<g id="node38" class="node">
<title>omname</title>
<polygon fill="none" stroke="black" points="912.13,-114 664.13,-114 664.13,-78 912.13,-78 912.13,-114"/>
<text text-anchor="middle" x="788.13" y="-89.8" font-family="Times,serif" font-size="24.00">Forward projection</text>
</g>
</g>
</svg>
